<mxfile host="Electron" agent="Mozilla/5.0 (Windows NT 10.0; Win64; x64) AppleWebKit/537.36 (KHTML, like Gecko) draw.io/25.0.2 Chrome/128.0.6613.186 Electron/32.2.5 Safari/537.36" version="25.0.2">
  <diagram name="Page-1" id="yv6luooABXXGb7anI8G8">
    <mxGraphModel dx="839" dy="777" grid="1" gridSize="10" guides="1" tooltips="1" connect="1" arrows="1" fold="1" page="1" pageScale="1" pageWidth="827" pageHeight="1169" math="0" shadow="0">
      <root>
        <mxCell id="0" />
        <mxCell id="1" parent="0" />
        <mxCell id="qFgyLphtajTgJsgPCKxl-198" value="" style="whiteSpace=wrap;html=1;aspect=fixed;" vertex="1" parent="1">
          <mxGeometry x="300" y="200" width="200" height="200" as="geometry" />
        </mxCell>
        <mxCell id="qFgyLphtajTgJsgPCKxl-8" value="" style="whiteSpace=wrap;html=1;aspect=fixed;strokeColor=#FF0000;fillColor=#FF0000;" vertex="1" parent="1">
          <mxGeometry x="340" y="220" width="80" height="80" as="geometry" />
        </mxCell>
        <mxCell id="qFgyLphtajTgJsgPCKxl-9" value="" style="whiteSpace=wrap;html=1;aspect=fixed;strokeColor=#0000FF;fillColor=#0000FF;opacity=70;" vertex="1" parent="1">
          <mxGeometry x="380" y="260" width="80" height="80" as="geometry" />
        </mxCell>
        <mxCell id="qFgyLphtajTgJsgPCKxl-1" value="" style="whiteSpace=wrap;html=1;aspect=fixed;" vertex="1" parent="1">
          <mxGeometry x="80" y="200" width="200" height="200" as="geometry" />
        </mxCell>
        <mxCell id="qFgyLphtajTgJsgPCKxl-2" value="" style="whiteSpace=wrap;html=1;aspect=fixed;strokeColor=#FF0000;fillColor=#FF0000;" vertex="1" parent="1">
          <mxGeometry x="100" y="220" width="80" height="80" as="geometry" />
        </mxCell>
        <mxCell id="qFgyLphtajTgJsgPCKxl-4" value="" style="whiteSpace=wrap;html=1;aspect=fixed;strokeColor=#0000FF;fillColor=#0000FF;opacity=70;" vertex="1" parent="1">
          <mxGeometry x="140" y="260" width="80" height="80" as="geometry" />
        </mxCell>
        <mxCell id="qFgyLphtajTgJsgPCKxl-21" value="&lt;b&gt;FB[0]&lt;/b&gt;" style="text;html=1;align=center;verticalAlign=middle;resizable=0;points=[];autosize=1;strokeColor=none;fillColor=none;fontSize=15;" vertex="1" parent="1">
          <mxGeometry x="150" y="170" width="60" height="30" as="geometry" />
        </mxCell>
        <mxCell id="qFgyLphtajTgJsgPCKxl-22" value="&lt;b&gt;FB[1]&lt;/b&gt;" style="text;html=1;align=center;verticalAlign=middle;resizable=0;points=[];autosize=1;strokeColor=none;fillColor=none;fontSize=15;" vertex="1" parent="1">
          <mxGeometry x="370" y="170" width="60" height="30" as="geometry" />
        </mxCell>
        <mxCell id="qFgyLphtajTgJsgPCKxl-28" value="" style="rounded=0;whiteSpace=wrap;html=1;fillColor=none;opacity=20;" vertex="1" parent="1">
          <mxGeometry x="80" y="200" width="20" height="20" as="geometry" />
        </mxCell>
        <mxCell id="qFgyLphtajTgJsgPCKxl-29" value="" style="rounded=0;whiteSpace=wrap;html=1;fillColor=none;opacity=20;" vertex="1" parent="1">
          <mxGeometry x="100" y="200" width="20" height="20" as="geometry" />
        </mxCell>
        <mxCell id="qFgyLphtajTgJsgPCKxl-30" value="" style="rounded=0;whiteSpace=wrap;html=1;fillColor=none;opacity=20;" vertex="1" parent="1">
          <mxGeometry x="120" y="200" width="20" height="20" as="geometry" />
        </mxCell>
        <mxCell id="qFgyLphtajTgJsgPCKxl-31" value="" style="rounded=0;whiteSpace=wrap;html=1;fillColor=none;opacity=20;" vertex="1" parent="1">
          <mxGeometry x="140" y="200" width="20" height="20" as="geometry" />
        </mxCell>
        <mxCell id="qFgyLphtajTgJsgPCKxl-32" value="" style="rounded=0;whiteSpace=wrap;html=1;fillColor=none;opacity=20;" vertex="1" parent="1">
          <mxGeometry x="160" y="200" width="20" height="20" as="geometry" />
        </mxCell>
        <mxCell id="qFgyLphtajTgJsgPCKxl-33" value="" style="rounded=0;whiteSpace=wrap;html=1;fillColor=none;opacity=20;" vertex="1" parent="1">
          <mxGeometry x="180" y="200" width="20" height="20" as="geometry" />
        </mxCell>
        <mxCell id="qFgyLphtajTgJsgPCKxl-34" value="" style="rounded=0;whiteSpace=wrap;html=1;fillColor=none;opacity=20;" vertex="1" parent="1">
          <mxGeometry x="200" y="200" width="20" height="20" as="geometry" />
        </mxCell>
        <mxCell id="qFgyLphtajTgJsgPCKxl-35" value="" style="rounded=0;whiteSpace=wrap;html=1;fillColor=none;opacity=20;" vertex="1" parent="1">
          <mxGeometry x="220" y="200" width="20" height="20" as="geometry" />
        </mxCell>
        <mxCell id="qFgyLphtajTgJsgPCKxl-36" value="" style="rounded=0;whiteSpace=wrap;html=1;fillColor=none;opacity=20;" vertex="1" parent="1">
          <mxGeometry x="240" y="200" width="20" height="20" as="geometry" />
        </mxCell>
        <mxCell id="qFgyLphtajTgJsgPCKxl-37" value="" style="rounded=0;whiteSpace=wrap;html=1;fillColor=none;opacity=20;" vertex="1" parent="1">
          <mxGeometry x="260" y="200" width="20" height="20" as="geometry" />
        </mxCell>
        <mxCell id="qFgyLphtajTgJsgPCKxl-98" value="" style="rounded=0;whiteSpace=wrap;html=1;fillColor=none;opacity=20;" vertex="1" parent="1">
          <mxGeometry x="80" y="220" width="20" height="20" as="geometry" />
        </mxCell>
        <mxCell id="qFgyLphtajTgJsgPCKxl-99" value="" style="rounded=0;whiteSpace=wrap;html=1;fillColor=none;opacity=20;" vertex="1" parent="1">
          <mxGeometry x="100" y="220" width="20" height="20" as="geometry" />
        </mxCell>
        <mxCell id="qFgyLphtajTgJsgPCKxl-100" value="" style="rounded=0;whiteSpace=wrap;html=1;fillColor=none;opacity=20;" vertex="1" parent="1">
          <mxGeometry x="120" y="220" width="20" height="20" as="geometry" />
        </mxCell>
        <mxCell id="qFgyLphtajTgJsgPCKxl-101" value="" style="rounded=0;whiteSpace=wrap;html=1;fillColor=none;opacity=20;" vertex="1" parent="1">
          <mxGeometry x="140" y="220" width="20" height="20" as="geometry" />
        </mxCell>
        <mxCell id="qFgyLphtajTgJsgPCKxl-102" value="" style="rounded=0;whiteSpace=wrap;html=1;fillColor=none;opacity=20;" vertex="1" parent="1">
          <mxGeometry x="160" y="220" width="20" height="20" as="geometry" />
        </mxCell>
        <mxCell id="qFgyLphtajTgJsgPCKxl-103" value="" style="rounded=0;whiteSpace=wrap;html=1;fillColor=none;opacity=20;" vertex="1" parent="1">
          <mxGeometry x="180" y="220" width="20" height="20" as="geometry" />
        </mxCell>
        <mxCell id="qFgyLphtajTgJsgPCKxl-104" value="" style="rounded=0;whiteSpace=wrap;html=1;fillColor=none;opacity=20;" vertex="1" parent="1">
          <mxGeometry x="200" y="220" width="20" height="20" as="geometry" />
        </mxCell>
        <mxCell id="qFgyLphtajTgJsgPCKxl-105" value="" style="rounded=0;whiteSpace=wrap;html=1;fillColor=none;opacity=20;" vertex="1" parent="1">
          <mxGeometry x="220" y="220" width="20" height="20" as="geometry" />
        </mxCell>
        <mxCell id="qFgyLphtajTgJsgPCKxl-106" value="" style="rounded=0;whiteSpace=wrap;html=1;fillColor=none;opacity=20;" vertex="1" parent="1">
          <mxGeometry x="240" y="220" width="20" height="20" as="geometry" />
        </mxCell>
        <mxCell id="qFgyLphtajTgJsgPCKxl-107" value="" style="rounded=0;whiteSpace=wrap;html=1;fillColor=none;opacity=20;" vertex="1" parent="1">
          <mxGeometry x="260" y="220" width="20" height="20" as="geometry" />
        </mxCell>
        <mxCell id="qFgyLphtajTgJsgPCKxl-108" value="" style="rounded=0;whiteSpace=wrap;html=1;fillColor=none;opacity=20;" vertex="1" parent="1">
          <mxGeometry x="80" y="240" width="20" height="20" as="geometry" />
        </mxCell>
        <mxCell id="qFgyLphtajTgJsgPCKxl-109" value="" style="rounded=0;whiteSpace=wrap;html=1;fillColor=none;opacity=20;" vertex="1" parent="1">
          <mxGeometry x="100" y="240" width="20" height="20" as="geometry" />
        </mxCell>
        <mxCell id="qFgyLphtajTgJsgPCKxl-110" value="" style="rounded=0;whiteSpace=wrap;html=1;fillColor=none;opacity=20;" vertex="1" parent="1">
          <mxGeometry x="120" y="240" width="20" height="20" as="geometry" />
        </mxCell>
        <mxCell id="qFgyLphtajTgJsgPCKxl-111" value="" style="rounded=0;whiteSpace=wrap;html=1;fillColor=none;opacity=20;" vertex="1" parent="1">
          <mxGeometry x="140" y="240" width="20" height="20" as="geometry" />
        </mxCell>
        <mxCell id="qFgyLphtajTgJsgPCKxl-112" value="" style="rounded=0;whiteSpace=wrap;html=1;fillColor=none;opacity=20;" vertex="1" parent="1">
          <mxGeometry x="160" y="240" width="20" height="20" as="geometry" />
        </mxCell>
        <mxCell id="qFgyLphtajTgJsgPCKxl-113" value="" style="rounded=0;whiteSpace=wrap;html=1;fillColor=none;opacity=20;" vertex="1" parent="1">
          <mxGeometry x="180" y="240" width="20" height="20" as="geometry" />
        </mxCell>
        <mxCell id="qFgyLphtajTgJsgPCKxl-114" value="" style="rounded=0;whiteSpace=wrap;html=1;fillColor=none;opacity=20;" vertex="1" parent="1">
          <mxGeometry x="200" y="240" width="20" height="20" as="geometry" />
        </mxCell>
        <mxCell id="qFgyLphtajTgJsgPCKxl-115" value="" style="rounded=0;whiteSpace=wrap;html=1;fillColor=none;opacity=20;" vertex="1" parent="1">
          <mxGeometry x="220" y="240" width="20" height="20" as="geometry" />
        </mxCell>
        <mxCell id="qFgyLphtajTgJsgPCKxl-116" value="" style="rounded=0;whiteSpace=wrap;html=1;fillColor=none;opacity=20;" vertex="1" parent="1">
          <mxGeometry x="240" y="240" width="20" height="20" as="geometry" />
        </mxCell>
        <mxCell id="qFgyLphtajTgJsgPCKxl-117" value="" style="rounded=0;whiteSpace=wrap;html=1;fillColor=none;opacity=20;" vertex="1" parent="1">
          <mxGeometry x="260" y="240" width="20" height="20" as="geometry" />
        </mxCell>
        <mxCell id="qFgyLphtajTgJsgPCKxl-118" value="" style="rounded=0;whiteSpace=wrap;html=1;fillColor=none;opacity=20;" vertex="1" parent="1">
          <mxGeometry x="80" y="260" width="20" height="20" as="geometry" />
        </mxCell>
        <mxCell id="qFgyLphtajTgJsgPCKxl-119" value="" style="rounded=0;whiteSpace=wrap;html=1;fillColor=none;opacity=20;" vertex="1" parent="1">
          <mxGeometry x="100" y="260" width="20" height="20" as="geometry" />
        </mxCell>
        <mxCell id="qFgyLphtajTgJsgPCKxl-120" value="" style="rounded=0;whiteSpace=wrap;html=1;fillColor=none;opacity=20;" vertex="1" parent="1">
          <mxGeometry x="120" y="260" width="20" height="20" as="geometry" />
        </mxCell>
        <mxCell id="qFgyLphtajTgJsgPCKxl-121" value="" style="rounded=0;whiteSpace=wrap;html=1;fillColor=none;opacity=20;" vertex="1" parent="1">
          <mxGeometry x="140" y="260" width="20" height="20" as="geometry" />
        </mxCell>
        <mxCell id="qFgyLphtajTgJsgPCKxl-122" value="" style="rounded=0;whiteSpace=wrap;html=1;fillColor=none;opacity=20;" vertex="1" parent="1">
          <mxGeometry x="160" y="260" width="20" height="20" as="geometry" />
        </mxCell>
        <mxCell id="qFgyLphtajTgJsgPCKxl-123" value="" style="rounded=0;whiteSpace=wrap;html=1;fillColor=none;opacity=20;" vertex="1" parent="1">
          <mxGeometry x="180" y="260" width="20" height="20" as="geometry" />
        </mxCell>
        <mxCell id="qFgyLphtajTgJsgPCKxl-124" value="" style="rounded=0;whiteSpace=wrap;html=1;fillColor=none;opacity=20;" vertex="1" parent="1">
          <mxGeometry x="200" y="260" width="20" height="20" as="geometry" />
        </mxCell>
        <mxCell id="qFgyLphtajTgJsgPCKxl-125" value="" style="rounded=0;whiteSpace=wrap;html=1;fillColor=none;opacity=20;" vertex="1" parent="1">
          <mxGeometry x="220" y="260" width="20" height="20" as="geometry" />
        </mxCell>
        <mxCell id="qFgyLphtajTgJsgPCKxl-126" value="" style="rounded=0;whiteSpace=wrap;html=1;fillColor=none;opacity=20;" vertex="1" parent="1">
          <mxGeometry x="240" y="260" width="20" height="20" as="geometry" />
        </mxCell>
        <mxCell id="qFgyLphtajTgJsgPCKxl-127" value="" style="rounded=0;whiteSpace=wrap;html=1;fillColor=none;opacity=20;" vertex="1" parent="1">
          <mxGeometry x="260" y="260" width="20" height="20" as="geometry" />
        </mxCell>
        <mxCell id="qFgyLphtajTgJsgPCKxl-128" value="" style="rounded=0;whiteSpace=wrap;html=1;fillColor=none;opacity=20;" vertex="1" parent="1">
          <mxGeometry x="80" y="280" width="20" height="20" as="geometry" />
        </mxCell>
        <mxCell id="qFgyLphtajTgJsgPCKxl-129" value="" style="rounded=0;whiteSpace=wrap;html=1;fillColor=none;opacity=20;" vertex="1" parent="1">
          <mxGeometry x="100" y="280" width="20" height="20" as="geometry" />
        </mxCell>
        <mxCell id="qFgyLphtajTgJsgPCKxl-130" value="" style="rounded=0;whiteSpace=wrap;html=1;fillColor=none;opacity=20;" vertex="1" parent="1">
          <mxGeometry x="120" y="280" width="20" height="20" as="geometry" />
        </mxCell>
        <mxCell id="qFgyLphtajTgJsgPCKxl-131" value="" style="rounded=0;whiteSpace=wrap;html=1;fillColor=none;opacity=20;" vertex="1" parent="1">
          <mxGeometry x="140" y="280" width="20" height="20" as="geometry" />
        </mxCell>
        <mxCell id="qFgyLphtajTgJsgPCKxl-132" value="" style="rounded=0;whiteSpace=wrap;html=1;fillColor=none;opacity=20;" vertex="1" parent="1">
          <mxGeometry x="160" y="280" width="20" height="20" as="geometry" />
        </mxCell>
        <mxCell id="qFgyLphtajTgJsgPCKxl-133" value="" style="rounded=0;whiteSpace=wrap;html=1;fillColor=none;opacity=20;" vertex="1" parent="1">
          <mxGeometry x="180" y="280" width="20" height="20" as="geometry" />
        </mxCell>
        <mxCell id="qFgyLphtajTgJsgPCKxl-134" value="" style="rounded=0;whiteSpace=wrap;html=1;fillColor=none;opacity=20;" vertex="1" parent="1">
          <mxGeometry x="200" y="280" width="20" height="20" as="geometry" />
        </mxCell>
        <mxCell id="qFgyLphtajTgJsgPCKxl-135" value="" style="rounded=0;whiteSpace=wrap;html=1;fillColor=none;opacity=20;" vertex="1" parent="1">
          <mxGeometry x="220" y="280" width="20" height="20" as="geometry" />
        </mxCell>
        <mxCell id="qFgyLphtajTgJsgPCKxl-136" value="" style="rounded=0;whiteSpace=wrap;html=1;fillColor=none;opacity=20;" vertex="1" parent="1">
          <mxGeometry x="240" y="280" width="20" height="20" as="geometry" />
        </mxCell>
        <mxCell id="qFgyLphtajTgJsgPCKxl-137" value="" style="rounded=0;whiteSpace=wrap;html=1;fillColor=none;opacity=20;" vertex="1" parent="1">
          <mxGeometry x="260" y="280" width="20" height="20" as="geometry" />
        </mxCell>
        <mxCell id="qFgyLphtajTgJsgPCKxl-138" value="" style="rounded=0;whiteSpace=wrap;html=1;fillColor=none;opacity=20;" vertex="1" parent="1">
          <mxGeometry x="80" y="300" width="20" height="20" as="geometry" />
        </mxCell>
        <mxCell id="qFgyLphtajTgJsgPCKxl-139" value="" style="rounded=0;whiteSpace=wrap;html=1;fillColor=none;opacity=20;" vertex="1" parent="1">
          <mxGeometry x="100" y="300" width="20" height="20" as="geometry" />
        </mxCell>
        <mxCell id="qFgyLphtajTgJsgPCKxl-140" value="" style="rounded=0;whiteSpace=wrap;html=1;fillColor=none;opacity=20;" vertex="1" parent="1">
          <mxGeometry x="120" y="300" width="20" height="20" as="geometry" />
        </mxCell>
        <mxCell id="qFgyLphtajTgJsgPCKxl-141" value="" style="rounded=0;whiteSpace=wrap;html=1;fillColor=none;opacity=20;" vertex="1" parent="1">
          <mxGeometry x="140" y="300" width="20" height="20" as="geometry" />
        </mxCell>
        <mxCell id="qFgyLphtajTgJsgPCKxl-142" value="" style="rounded=0;whiteSpace=wrap;html=1;fillColor=none;opacity=20;" vertex="1" parent="1">
          <mxGeometry x="160" y="300" width="20" height="20" as="geometry" />
        </mxCell>
        <mxCell id="qFgyLphtajTgJsgPCKxl-143" value="" style="rounded=0;whiteSpace=wrap;html=1;fillColor=none;opacity=20;" vertex="1" parent="1">
          <mxGeometry x="180" y="300" width="20" height="20" as="geometry" />
        </mxCell>
        <mxCell id="qFgyLphtajTgJsgPCKxl-144" value="" style="rounded=0;whiteSpace=wrap;html=1;fillColor=none;opacity=20;" vertex="1" parent="1">
          <mxGeometry x="200" y="300" width="20" height="20" as="geometry" />
        </mxCell>
        <mxCell id="qFgyLphtajTgJsgPCKxl-145" value="" style="rounded=0;whiteSpace=wrap;html=1;fillColor=none;opacity=20;" vertex="1" parent="1">
          <mxGeometry x="220" y="300" width="20" height="20" as="geometry" />
        </mxCell>
        <mxCell id="qFgyLphtajTgJsgPCKxl-146" value="" style="rounded=0;whiteSpace=wrap;html=1;fillColor=none;opacity=20;" vertex="1" parent="1">
          <mxGeometry x="240" y="300" width="20" height="20" as="geometry" />
        </mxCell>
        <mxCell id="qFgyLphtajTgJsgPCKxl-147" value="" style="rounded=0;whiteSpace=wrap;html=1;fillColor=none;opacity=20;" vertex="1" parent="1">
          <mxGeometry x="260" y="300" width="20" height="20" as="geometry" />
        </mxCell>
        <mxCell id="qFgyLphtajTgJsgPCKxl-148" value="" style="rounded=0;whiteSpace=wrap;html=1;fillColor=none;opacity=20;" vertex="1" parent="1">
          <mxGeometry x="80" y="320" width="20" height="20" as="geometry" />
        </mxCell>
        <mxCell id="qFgyLphtajTgJsgPCKxl-149" value="" style="rounded=0;whiteSpace=wrap;html=1;fillColor=none;opacity=20;" vertex="1" parent="1">
          <mxGeometry x="100" y="320" width="20" height="20" as="geometry" />
        </mxCell>
        <mxCell id="qFgyLphtajTgJsgPCKxl-150" value="" style="rounded=0;whiteSpace=wrap;html=1;fillColor=none;opacity=20;" vertex="1" parent="1">
          <mxGeometry x="120" y="320" width="20" height="20" as="geometry" />
        </mxCell>
        <mxCell id="qFgyLphtajTgJsgPCKxl-151" value="" style="rounded=0;whiteSpace=wrap;html=1;fillColor=none;opacity=20;" vertex="1" parent="1">
          <mxGeometry x="140" y="320" width="20" height="20" as="geometry" />
        </mxCell>
        <mxCell id="qFgyLphtajTgJsgPCKxl-152" value="" style="rounded=0;whiteSpace=wrap;html=1;fillColor=none;opacity=20;" vertex="1" parent="1">
          <mxGeometry x="160" y="320" width="20" height="20" as="geometry" />
        </mxCell>
        <mxCell id="qFgyLphtajTgJsgPCKxl-153" value="" style="rounded=0;whiteSpace=wrap;html=1;fillColor=none;opacity=20;" vertex="1" parent="1">
          <mxGeometry x="180" y="320" width="20" height="20" as="geometry" />
        </mxCell>
        <mxCell id="qFgyLphtajTgJsgPCKxl-154" value="" style="rounded=0;whiteSpace=wrap;html=1;fillColor=none;opacity=20;" vertex="1" parent="1">
          <mxGeometry x="200" y="320" width="20" height="20" as="geometry" />
        </mxCell>
        <mxCell id="qFgyLphtajTgJsgPCKxl-155" value="" style="rounded=0;whiteSpace=wrap;html=1;fillColor=none;opacity=20;" vertex="1" parent="1">
          <mxGeometry x="220" y="320" width="20" height="20" as="geometry" />
        </mxCell>
        <mxCell id="qFgyLphtajTgJsgPCKxl-156" value="" style="rounded=0;whiteSpace=wrap;html=1;fillColor=none;opacity=20;" vertex="1" parent="1">
          <mxGeometry x="240" y="320" width="20" height="20" as="geometry" />
        </mxCell>
        <mxCell id="qFgyLphtajTgJsgPCKxl-157" value="" style="rounded=0;whiteSpace=wrap;html=1;fillColor=none;opacity=20;" vertex="1" parent="1">
          <mxGeometry x="260" y="320" width="20" height="20" as="geometry" />
        </mxCell>
        <mxCell id="qFgyLphtajTgJsgPCKxl-168" value="" style="rounded=0;whiteSpace=wrap;html=1;fillColor=none;opacity=20;" vertex="1" parent="1">
          <mxGeometry x="80" y="340" width="20" height="20" as="geometry" />
        </mxCell>
        <mxCell id="qFgyLphtajTgJsgPCKxl-169" value="" style="rounded=0;whiteSpace=wrap;html=1;fillColor=none;opacity=20;" vertex="1" parent="1">
          <mxGeometry x="100" y="340" width="20" height="20" as="geometry" />
        </mxCell>
        <mxCell id="qFgyLphtajTgJsgPCKxl-170" value="" style="rounded=0;whiteSpace=wrap;html=1;fillColor=none;opacity=20;" vertex="1" parent="1">
          <mxGeometry x="120" y="340" width="20" height="20" as="geometry" />
        </mxCell>
        <mxCell id="qFgyLphtajTgJsgPCKxl-171" value="" style="rounded=0;whiteSpace=wrap;html=1;fillColor=none;opacity=20;" vertex="1" parent="1">
          <mxGeometry x="140" y="340" width="20" height="20" as="geometry" />
        </mxCell>
        <mxCell id="qFgyLphtajTgJsgPCKxl-172" value="" style="rounded=0;whiteSpace=wrap;html=1;fillColor=none;opacity=20;" vertex="1" parent="1">
          <mxGeometry x="160" y="340" width="20" height="20" as="geometry" />
        </mxCell>
        <mxCell id="qFgyLphtajTgJsgPCKxl-173" value="" style="rounded=0;whiteSpace=wrap;html=1;fillColor=none;opacity=20;" vertex="1" parent="1">
          <mxGeometry x="180" y="340" width="20" height="20" as="geometry" />
        </mxCell>
        <mxCell id="qFgyLphtajTgJsgPCKxl-174" value="" style="rounded=0;whiteSpace=wrap;html=1;fillColor=none;opacity=20;" vertex="1" parent="1">
          <mxGeometry x="200" y="340" width="20" height="20" as="geometry" />
        </mxCell>
        <mxCell id="qFgyLphtajTgJsgPCKxl-175" value="" style="rounded=0;whiteSpace=wrap;html=1;fillColor=none;opacity=20;" vertex="1" parent="1">
          <mxGeometry x="220" y="340" width="20" height="20" as="geometry" />
        </mxCell>
        <mxCell id="qFgyLphtajTgJsgPCKxl-176" value="" style="rounded=0;whiteSpace=wrap;html=1;fillColor=none;opacity=20;" vertex="1" parent="1">
          <mxGeometry x="240" y="340" width="20" height="20" as="geometry" />
        </mxCell>
        <mxCell id="qFgyLphtajTgJsgPCKxl-177" value="" style="rounded=0;whiteSpace=wrap;html=1;fillColor=none;opacity=20;" vertex="1" parent="1">
          <mxGeometry x="260" y="340" width="20" height="20" as="geometry" />
        </mxCell>
        <mxCell id="qFgyLphtajTgJsgPCKxl-178" value="" style="rounded=0;whiteSpace=wrap;html=1;fillColor=none;opacity=20;" vertex="1" parent="1">
          <mxGeometry x="80" y="360" width="20" height="20" as="geometry" />
        </mxCell>
        <mxCell id="qFgyLphtajTgJsgPCKxl-179" value="" style="rounded=0;whiteSpace=wrap;html=1;fillColor=none;opacity=20;" vertex="1" parent="1">
          <mxGeometry x="100" y="360" width="20" height="20" as="geometry" />
        </mxCell>
        <mxCell id="qFgyLphtajTgJsgPCKxl-180" value="" style="rounded=0;whiteSpace=wrap;html=1;fillColor=none;opacity=20;" vertex="1" parent="1">
          <mxGeometry x="120" y="360" width="20" height="20" as="geometry" />
        </mxCell>
        <mxCell id="qFgyLphtajTgJsgPCKxl-181" value="" style="rounded=0;whiteSpace=wrap;html=1;fillColor=none;opacity=20;" vertex="1" parent="1">
          <mxGeometry x="140" y="360" width="20" height="20" as="geometry" />
        </mxCell>
        <mxCell id="qFgyLphtajTgJsgPCKxl-182" value="" style="rounded=0;whiteSpace=wrap;html=1;fillColor=none;opacity=20;" vertex="1" parent="1">
          <mxGeometry x="160" y="360" width="20" height="20" as="geometry" />
        </mxCell>
        <mxCell id="qFgyLphtajTgJsgPCKxl-183" value="" style="rounded=0;whiteSpace=wrap;html=1;fillColor=none;opacity=20;" vertex="1" parent="1">
          <mxGeometry x="180" y="360" width="20" height="20" as="geometry" />
        </mxCell>
        <mxCell id="qFgyLphtajTgJsgPCKxl-184" value="" style="rounded=0;whiteSpace=wrap;html=1;fillColor=none;opacity=20;" vertex="1" parent="1">
          <mxGeometry x="200" y="360" width="20" height="20" as="geometry" />
        </mxCell>
        <mxCell id="qFgyLphtajTgJsgPCKxl-185" value="" style="rounded=0;whiteSpace=wrap;html=1;fillColor=none;opacity=20;" vertex="1" parent="1">
          <mxGeometry x="220" y="360" width="20" height="20" as="geometry" />
        </mxCell>
        <mxCell id="qFgyLphtajTgJsgPCKxl-186" value="" style="rounded=0;whiteSpace=wrap;html=1;fillColor=none;opacity=20;" vertex="1" parent="1">
          <mxGeometry x="240" y="360" width="20" height="20" as="geometry" />
        </mxCell>
        <mxCell id="qFgyLphtajTgJsgPCKxl-187" value="" style="rounded=0;whiteSpace=wrap;html=1;fillColor=none;opacity=20;" vertex="1" parent="1">
          <mxGeometry x="260" y="360" width="20" height="20" as="geometry" />
        </mxCell>
        <mxCell id="qFgyLphtajTgJsgPCKxl-188" value="" style="rounded=0;whiteSpace=wrap;html=1;fillColor=none;opacity=20;" vertex="1" parent="1">
          <mxGeometry x="80" y="380" width="20" height="20" as="geometry" />
        </mxCell>
        <mxCell id="qFgyLphtajTgJsgPCKxl-189" value="" style="rounded=0;whiteSpace=wrap;html=1;fillColor=none;opacity=20;" vertex="1" parent="1">
          <mxGeometry x="100" y="380" width="20" height="20" as="geometry" />
        </mxCell>
        <mxCell id="qFgyLphtajTgJsgPCKxl-190" value="" style="rounded=0;whiteSpace=wrap;html=1;fillColor=none;opacity=20;" vertex="1" parent="1">
          <mxGeometry x="120" y="380" width="20" height="20" as="geometry" />
        </mxCell>
        <mxCell id="qFgyLphtajTgJsgPCKxl-191" value="" style="rounded=0;whiteSpace=wrap;html=1;fillColor=none;opacity=20;" vertex="1" parent="1">
          <mxGeometry x="140" y="380" width="20" height="20" as="geometry" />
        </mxCell>
        <mxCell id="qFgyLphtajTgJsgPCKxl-192" value="" style="rounded=0;whiteSpace=wrap;html=1;fillColor=none;opacity=20;" vertex="1" parent="1">
          <mxGeometry x="160" y="380" width="20" height="20" as="geometry" />
        </mxCell>
        <mxCell id="qFgyLphtajTgJsgPCKxl-193" value="" style="rounded=0;whiteSpace=wrap;html=1;fillColor=none;opacity=20;" vertex="1" parent="1">
          <mxGeometry x="180" y="380" width="20" height="20" as="geometry" />
        </mxCell>
        <mxCell id="qFgyLphtajTgJsgPCKxl-194" value="" style="rounded=0;whiteSpace=wrap;html=1;fillColor=none;opacity=20;" vertex="1" parent="1">
          <mxGeometry x="200" y="380" width="20" height="20" as="geometry" />
        </mxCell>
        <mxCell id="qFgyLphtajTgJsgPCKxl-195" value="" style="rounded=0;whiteSpace=wrap;html=1;fillColor=none;opacity=20;" vertex="1" parent="1">
          <mxGeometry x="220" y="380" width="20" height="20" as="geometry" />
        </mxCell>
        <mxCell id="qFgyLphtajTgJsgPCKxl-196" value="" style="rounded=0;whiteSpace=wrap;html=1;fillColor=none;opacity=20;" vertex="1" parent="1">
          <mxGeometry x="240" y="380" width="20" height="20" as="geometry" />
        </mxCell>
        <mxCell id="qFgyLphtajTgJsgPCKxl-197" value="" style="rounded=0;whiteSpace=wrap;html=1;fillColor=none;opacity=20;" vertex="1" parent="1">
          <mxGeometry x="260" y="380" width="20" height="20" as="geometry" />
        </mxCell>
        <mxCell id="qFgyLphtajTgJsgPCKxl-201" value="" style="rounded=0;whiteSpace=wrap;html=1;fillColor=none;opacity=20;" vertex="1" parent="1">
          <mxGeometry x="300" y="200" width="20" height="20" as="geometry" />
        </mxCell>
        <mxCell id="qFgyLphtajTgJsgPCKxl-202" value="" style="rounded=0;whiteSpace=wrap;html=1;fillColor=none;opacity=20;" vertex="1" parent="1">
          <mxGeometry x="320" y="200" width="20" height="20" as="geometry" />
        </mxCell>
        <mxCell id="qFgyLphtajTgJsgPCKxl-203" value="" style="rounded=0;whiteSpace=wrap;html=1;fillColor=none;opacity=20;" vertex="1" parent="1">
          <mxGeometry x="340" y="200" width="20" height="20" as="geometry" />
        </mxCell>
        <mxCell id="qFgyLphtajTgJsgPCKxl-204" value="" style="rounded=0;whiteSpace=wrap;html=1;fillColor=none;opacity=20;" vertex="1" parent="1">
          <mxGeometry x="360" y="200" width="20" height="20" as="geometry" />
        </mxCell>
        <mxCell id="qFgyLphtajTgJsgPCKxl-205" value="" style="rounded=0;whiteSpace=wrap;html=1;fillColor=none;opacity=20;" vertex="1" parent="1">
          <mxGeometry x="380" y="200" width="20" height="20" as="geometry" />
        </mxCell>
        <mxCell id="qFgyLphtajTgJsgPCKxl-206" value="" style="rounded=0;whiteSpace=wrap;html=1;fillColor=none;opacity=20;" vertex="1" parent="1">
          <mxGeometry x="400" y="200" width="20" height="20" as="geometry" />
        </mxCell>
        <mxCell id="qFgyLphtajTgJsgPCKxl-207" value="" style="rounded=0;whiteSpace=wrap;html=1;fillColor=none;opacity=20;" vertex="1" parent="1">
          <mxGeometry x="420" y="200" width="20" height="20" as="geometry" />
        </mxCell>
        <mxCell id="qFgyLphtajTgJsgPCKxl-208" value="" style="rounded=0;whiteSpace=wrap;html=1;fillColor=none;opacity=20;" vertex="1" parent="1">
          <mxGeometry x="440" y="200" width="20" height="20" as="geometry" />
        </mxCell>
        <mxCell id="qFgyLphtajTgJsgPCKxl-209" value="" style="rounded=0;whiteSpace=wrap;html=1;fillColor=none;opacity=20;" vertex="1" parent="1">
          <mxGeometry x="460" y="200" width="20" height="20" as="geometry" />
        </mxCell>
        <mxCell id="qFgyLphtajTgJsgPCKxl-210" value="" style="rounded=0;whiteSpace=wrap;html=1;fillColor=none;opacity=20;" vertex="1" parent="1">
          <mxGeometry x="480" y="200" width="20" height="20" as="geometry" />
        </mxCell>
        <mxCell id="qFgyLphtajTgJsgPCKxl-211" value="" style="rounded=0;whiteSpace=wrap;html=1;fillColor=none;opacity=20;" vertex="1" parent="1">
          <mxGeometry x="300" y="220" width="20" height="20" as="geometry" />
        </mxCell>
        <mxCell id="qFgyLphtajTgJsgPCKxl-212" value="" style="rounded=0;whiteSpace=wrap;html=1;fillColor=none;opacity=20;" vertex="1" parent="1">
          <mxGeometry x="320" y="220" width="20" height="20" as="geometry" />
        </mxCell>
        <mxCell id="qFgyLphtajTgJsgPCKxl-213" value="" style="rounded=0;whiteSpace=wrap;html=1;fillColor=none;opacity=20;" vertex="1" parent="1">
          <mxGeometry x="340" y="220" width="20" height="20" as="geometry" />
        </mxCell>
        <mxCell id="qFgyLphtajTgJsgPCKxl-214" value="" style="rounded=0;whiteSpace=wrap;html=1;fillColor=none;opacity=20;" vertex="1" parent="1">
          <mxGeometry x="360" y="220" width="20" height="20" as="geometry" />
        </mxCell>
        <mxCell id="qFgyLphtajTgJsgPCKxl-215" value="" style="rounded=0;whiteSpace=wrap;html=1;fillColor=none;opacity=20;" vertex="1" parent="1">
          <mxGeometry x="380" y="220" width="20" height="20" as="geometry" />
        </mxCell>
        <mxCell id="qFgyLphtajTgJsgPCKxl-216" value="" style="rounded=0;whiteSpace=wrap;html=1;fillColor=none;opacity=20;" vertex="1" parent="1">
          <mxGeometry x="400" y="220" width="20" height="20" as="geometry" />
        </mxCell>
        <mxCell id="qFgyLphtajTgJsgPCKxl-217" value="" style="rounded=0;whiteSpace=wrap;html=1;fillColor=none;opacity=20;" vertex="1" parent="1">
          <mxGeometry x="420" y="220" width="20" height="20" as="geometry" />
        </mxCell>
        <mxCell id="qFgyLphtajTgJsgPCKxl-218" value="" style="rounded=0;whiteSpace=wrap;html=1;fillColor=none;opacity=20;" vertex="1" parent="1">
          <mxGeometry x="440" y="220" width="20" height="20" as="geometry" />
        </mxCell>
        <mxCell id="qFgyLphtajTgJsgPCKxl-219" value="" style="rounded=0;whiteSpace=wrap;html=1;fillColor=none;opacity=20;" vertex="1" parent="1">
          <mxGeometry x="460" y="220" width="20" height="20" as="geometry" />
        </mxCell>
        <mxCell id="qFgyLphtajTgJsgPCKxl-220" value="" style="rounded=0;whiteSpace=wrap;html=1;fillColor=none;opacity=20;" vertex="1" parent="1">
          <mxGeometry x="480" y="220" width="20" height="20" as="geometry" />
        </mxCell>
        <mxCell id="qFgyLphtajTgJsgPCKxl-221" value="" style="rounded=0;whiteSpace=wrap;html=1;fillColor=none;opacity=20;" vertex="1" parent="1">
          <mxGeometry x="300" y="240" width="20" height="20" as="geometry" />
        </mxCell>
        <mxCell id="qFgyLphtajTgJsgPCKxl-222" value="" style="rounded=0;whiteSpace=wrap;html=1;fillColor=none;opacity=20;" vertex="1" parent="1">
          <mxGeometry x="320" y="240" width="20" height="20" as="geometry" />
        </mxCell>
        <mxCell id="qFgyLphtajTgJsgPCKxl-223" value="" style="rounded=0;whiteSpace=wrap;html=1;fillColor=none;opacity=20;" vertex="1" parent="1">
          <mxGeometry x="340" y="240" width="20" height="20" as="geometry" />
        </mxCell>
        <mxCell id="qFgyLphtajTgJsgPCKxl-224" value="" style="rounded=0;whiteSpace=wrap;html=1;fillColor=none;opacity=20;" vertex="1" parent="1">
          <mxGeometry x="360" y="240" width="20" height="20" as="geometry" />
        </mxCell>
        <mxCell id="qFgyLphtajTgJsgPCKxl-225" value="" style="rounded=0;whiteSpace=wrap;html=1;fillColor=none;opacity=20;" vertex="1" parent="1">
          <mxGeometry x="380" y="240" width="20" height="20" as="geometry" />
        </mxCell>
        <mxCell id="qFgyLphtajTgJsgPCKxl-226" value="" style="rounded=0;whiteSpace=wrap;html=1;fillColor=none;opacity=20;" vertex="1" parent="1">
          <mxGeometry x="400" y="240" width="20" height="20" as="geometry" />
        </mxCell>
        <mxCell id="qFgyLphtajTgJsgPCKxl-227" value="" style="rounded=0;whiteSpace=wrap;html=1;fillColor=none;opacity=20;" vertex="1" parent="1">
          <mxGeometry x="420" y="240" width="20" height="20" as="geometry" />
        </mxCell>
        <mxCell id="qFgyLphtajTgJsgPCKxl-228" value="" style="rounded=0;whiteSpace=wrap;html=1;fillColor=none;opacity=20;" vertex="1" parent="1">
          <mxGeometry x="440" y="240" width="20" height="20" as="geometry" />
        </mxCell>
        <mxCell id="qFgyLphtajTgJsgPCKxl-229" value="" style="rounded=0;whiteSpace=wrap;html=1;fillColor=none;opacity=20;" vertex="1" parent="1">
          <mxGeometry x="460" y="240" width="20" height="20" as="geometry" />
        </mxCell>
        <mxCell id="qFgyLphtajTgJsgPCKxl-230" value="" style="rounded=0;whiteSpace=wrap;html=1;fillColor=none;opacity=20;" vertex="1" parent="1">
          <mxGeometry x="480" y="240" width="20" height="20" as="geometry" />
        </mxCell>
        <mxCell id="qFgyLphtajTgJsgPCKxl-231" value="" style="rounded=0;whiteSpace=wrap;html=1;fillColor=none;opacity=20;" vertex="1" parent="1">
          <mxGeometry x="300" y="260" width="20" height="20" as="geometry" />
        </mxCell>
        <mxCell id="qFgyLphtajTgJsgPCKxl-232" value="" style="rounded=0;whiteSpace=wrap;html=1;fillColor=none;opacity=20;" vertex="1" parent="1">
          <mxGeometry x="320" y="260" width="20" height="20" as="geometry" />
        </mxCell>
        <mxCell id="qFgyLphtajTgJsgPCKxl-233" value="" style="rounded=0;whiteSpace=wrap;html=1;fillColor=none;opacity=20;" vertex="1" parent="1">
          <mxGeometry x="340" y="260" width="20" height="20" as="geometry" />
        </mxCell>
        <mxCell id="qFgyLphtajTgJsgPCKxl-234" value="" style="rounded=0;whiteSpace=wrap;html=1;fillColor=none;opacity=20;" vertex="1" parent="1">
          <mxGeometry x="360" y="260" width="20" height="20" as="geometry" />
        </mxCell>
        <mxCell id="qFgyLphtajTgJsgPCKxl-235" value="" style="rounded=0;whiteSpace=wrap;html=1;fillColor=none;opacity=20;" vertex="1" parent="1">
          <mxGeometry x="380" y="260" width="20" height="20" as="geometry" />
        </mxCell>
        <mxCell id="qFgyLphtajTgJsgPCKxl-236" value="" style="rounded=0;whiteSpace=wrap;html=1;fillColor=none;opacity=20;" vertex="1" parent="1">
          <mxGeometry x="400" y="260" width="20" height="20" as="geometry" />
        </mxCell>
        <mxCell id="qFgyLphtajTgJsgPCKxl-237" value="" style="rounded=0;whiteSpace=wrap;html=1;fillColor=none;opacity=20;" vertex="1" parent="1">
          <mxGeometry x="420" y="260" width="20" height="20" as="geometry" />
        </mxCell>
        <mxCell id="qFgyLphtajTgJsgPCKxl-238" value="" style="rounded=0;whiteSpace=wrap;html=1;fillColor=none;opacity=20;" vertex="1" parent="1">
          <mxGeometry x="440" y="260" width="20" height="20" as="geometry" />
        </mxCell>
        <mxCell id="qFgyLphtajTgJsgPCKxl-239" value="" style="rounded=0;whiteSpace=wrap;html=1;fillColor=none;opacity=20;" vertex="1" parent="1">
          <mxGeometry x="460" y="260" width="20" height="20" as="geometry" />
        </mxCell>
        <mxCell id="qFgyLphtajTgJsgPCKxl-240" value="" style="rounded=0;whiteSpace=wrap;html=1;fillColor=none;opacity=20;" vertex="1" parent="1">
          <mxGeometry x="480" y="260" width="20" height="20" as="geometry" />
        </mxCell>
        <mxCell id="qFgyLphtajTgJsgPCKxl-241" value="" style="rounded=0;whiteSpace=wrap;html=1;fillColor=none;opacity=20;" vertex="1" parent="1">
          <mxGeometry x="300" y="280" width="20" height="20" as="geometry" />
        </mxCell>
        <mxCell id="qFgyLphtajTgJsgPCKxl-242" value="" style="rounded=0;whiteSpace=wrap;html=1;fillColor=none;opacity=20;" vertex="1" parent="1">
          <mxGeometry x="320" y="280" width="20" height="20" as="geometry" />
        </mxCell>
        <mxCell id="qFgyLphtajTgJsgPCKxl-243" value="" style="rounded=0;whiteSpace=wrap;html=1;fillColor=none;opacity=20;" vertex="1" parent="1">
          <mxGeometry x="340" y="280" width="20" height="20" as="geometry" />
        </mxCell>
        <mxCell id="qFgyLphtajTgJsgPCKxl-245" value="" style="rounded=0;whiteSpace=wrap;html=1;fillColor=none;opacity=20;" vertex="1" parent="1">
          <mxGeometry x="380" y="280" width="20" height="20" as="geometry" />
        </mxCell>
        <mxCell id="qFgyLphtajTgJsgPCKxl-246" value="" style="rounded=0;whiteSpace=wrap;html=1;fillColor=none;opacity=20;" vertex="1" parent="1">
          <mxGeometry x="400" y="280" width="20" height="20" as="geometry" />
        </mxCell>
        <mxCell id="qFgyLphtajTgJsgPCKxl-247" value="" style="rounded=0;whiteSpace=wrap;html=1;fillColor=none;opacity=20;" vertex="1" parent="1">
          <mxGeometry x="420" y="280" width="20" height="20" as="geometry" />
        </mxCell>
        <mxCell id="qFgyLphtajTgJsgPCKxl-248" value="" style="rounded=0;whiteSpace=wrap;html=1;fillColor=none;opacity=20;" vertex="1" parent="1">
          <mxGeometry x="440" y="280" width="20" height="20" as="geometry" />
        </mxCell>
        <mxCell id="qFgyLphtajTgJsgPCKxl-249" value="" style="rounded=0;whiteSpace=wrap;html=1;fillColor=none;opacity=20;" vertex="1" parent="1">
          <mxGeometry x="460" y="280" width="20" height="20" as="geometry" />
        </mxCell>
        <mxCell id="qFgyLphtajTgJsgPCKxl-250" value="" style="rounded=0;whiteSpace=wrap;html=1;fillColor=none;opacity=20;" vertex="1" parent="1">
          <mxGeometry x="480" y="280" width="20" height="20" as="geometry" />
        </mxCell>
        <mxCell id="qFgyLphtajTgJsgPCKxl-251" value="" style="rounded=0;whiteSpace=wrap;html=1;fillColor=none;opacity=20;" vertex="1" parent="1">
          <mxGeometry x="300" y="300" width="20" height="20" as="geometry" />
        </mxCell>
        <mxCell id="qFgyLphtajTgJsgPCKxl-252" value="" style="rounded=0;whiteSpace=wrap;html=1;fillColor=none;opacity=20;" vertex="1" parent="1">
          <mxGeometry x="320" y="300" width="20" height="20" as="geometry" />
        </mxCell>
        <mxCell id="qFgyLphtajTgJsgPCKxl-253" value="" style="rounded=0;whiteSpace=wrap;html=1;fillColor=none;opacity=20;" vertex="1" parent="1">
          <mxGeometry x="340" y="300" width="20" height="20" as="geometry" />
        </mxCell>
        <mxCell id="qFgyLphtajTgJsgPCKxl-254" value="" style="rounded=0;whiteSpace=wrap;html=1;fillColor=none;opacity=20;" vertex="1" parent="1">
          <mxGeometry x="360" y="300" width="20" height="20" as="geometry" />
        </mxCell>
        <mxCell id="qFgyLphtajTgJsgPCKxl-255" value="" style="rounded=0;whiteSpace=wrap;html=1;fillColor=none;opacity=20;" vertex="1" parent="1">
          <mxGeometry x="380" y="300" width="20" height="20" as="geometry" />
        </mxCell>
        <mxCell id="qFgyLphtajTgJsgPCKxl-256" value="" style="rounded=0;whiteSpace=wrap;html=1;fillColor=none;opacity=20;" vertex="1" parent="1">
          <mxGeometry x="400" y="300" width="20" height="20" as="geometry" />
        </mxCell>
        <mxCell id="qFgyLphtajTgJsgPCKxl-257" value="" style="rounded=0;whiteSpace=wrap;html=1;fillColor=none;opacity=20;" vertex="1" parent="1">
          <mxGeometry x="420" y="300" width="20" height="20" as="geometry" />
        </mxCell>
        <mxCell id="qFgyLphtajTgJsgPCKxl-258" value="" style="rounded=0;whiteSpace=wrap;html=1;fillColor=none;opacity=20;" vertex="1" parent="1">
          <mxGeometry x="440" y="300" width="20" height="20" as="geometry" />
        </mxCell>
        <mxCell id="qFgyLphtajTgJsgPCKxl-259" value="" style="rounded=0;whiteSpace=wrap;html=1;fillColor=none;opacity=20;" vertex="1" parent="1">
          <mxGeometry x="460" y="300" width="20" height="20" as="geometry" />
        </mxCell>
        <mxCell id="qFgyLphtajTgJsgPCKxl-260" value="" style="rounded=0;whiteSpace=wrap;html=1;fillColor=none;opacity=20;" vertex="1" parent="1">
          <mxGeometry x="480" y="300" width="20" height="20" as="geometry" />
        </mxCell>
        <mxCell id="qFgyLphtajTgJsgPCKxl-261" value="" style="rounded=0;whiteSpace=wrap;html=1;fillColor=none;opacity=20;" vertex="1" parent="1">
          <mxGeometry x="300" y="320" width="20" height="20" as="geometry" />
        </mxCell>
        <mxCell id="qFgyLphtajTgJsgPCKxl-262" value="" style="rounded=0;whiteSpace=wrap;html=1;fillColor=none;opacity=20;" vertex="1" parent="1">
          <mxGeometry x="320" y="320" width="20" height="20" as="geometry" />
        </mxCell>
        <mxCell id="qFgyLphtajTgJsgPCKxl-263" value="" style="rounded=0;whiteSpace=wrap;html=1;fillColor=none;opacity=20;" vertex="1" parent="1">
          <mxGeometry x="340" y="320" width="20" height="20" as="geometry" />
        </mxCell>
        <mxCell id="qFgyLphtajTgJsgPCKxl-265" value="" style="rounded=0;whiteSpace=wrap;html=1;fillColor=none;opacity=20;" vertex="1" parent="1">
          <mxGeometry x="380" y="320" width="20" height="20" as="geometry" />
        </mxCell>
        <mxCell id="qFgyLphtajTgJsgPCKxl-266" value="" style="rounded=0;whiteSpace=wrap;html=1;fillColor=none;opacity=20;" vertex="1" parent="1">
          <mxGeometry x="400" y="320" width="20" height="20" as="geometry" />
        </mxCell>
        <mxCell id="qFgyLphtajTgJsgPCKxl-267" value="" style="rounded=0;whiteSpace=wrap;html=1;fillColor=none;opacity=20;" vertex="1" parent="1">
          <mxGeometry x="420" y="320" width="20" height="20" as="geometry" />
        </mxCell>
        <mxCell id="qFgyLphtajTgJsgPCKxl-269" value="" style="rounded=0;whiteSpace=wrap;html=1;fillColor=none;opacity=20;" vertex="1" parent="1">
          <mxGeometry x="460" y="320" width="20" height="20" as="geometry" />
        </mxCell>
        <mxCell id="qFgyLphtajTgJsgPCKxl-270" value="" style="rounded=0;whiteSpace=wrap;html=1;fillColor=none;opacity=20;" vertex="1" parent="1">
          <mxGeometry x="480" y="320" width="20" height="20" as="geometry" />
        </mxCell>
        <mxCell id="qFgyLphtajTgJsgPCKxl-271" value="" style="rounded=0;whiteSpace=wrap;html=1;fillColor=none;opacity=20;" vertex="1" parent="1">
          <mxGeometry x="300" y="340" width="20" height="20" as="geometry" />
        </mxCell>
        <mxCell id="qFgyLphtajTgJsgPCKxl-272" value="" style="rounded=0;whiteSpace=wrap;html=1;fillColor=none;opacity=20;" vertex="1" parent="1">
          <mxGeometry x="320" y="340" width="20" height="20" as="geometry" />
        </mxCell>
        <mxCell id="qFgyLphtajTgJsgPCKxl-273" value="" style="rounded=0;whiteSpace=wrap;html=1;fillColor=none;opacity=20;" vertex="1" parent="1">
          <mxGeometry x="340" y="340" width="20" height="20" as="geometry" />
        </mxCell>
        <mxCell id="qFgyLphtajTgJsgPCKxl-274" value="" style="rounded=0;whiteSpace=wrap;html=1;fillColor=none;opacity=20;" vertex="1" parent="1">
          <mxGeometry x="360" y="340" width="20" height="20" as="geometry" />
        </mxCell>
        <mxCell id="qFgyLphtajTgJsgPCKxl-275" value="" style="rounded=0;whiteSpace=wrap;html=1;fillColor=none;opacity=20;" vertex="1" parent="1">
          <mxGeometry x="380" y="340" width="20" height="20" as="geometry" />
        </mxCell>
        <mxCell id="qFgyLphtajTgJsgPCKxl-276" value="" style="rounded=0;whiteSpace=wrap;html=1;fillColor=none;opacity=20;" vertex="1" parent="1">
          <mxGeometry x="400" y="340" width="20" height="20" as="geometry" />
        </mxCell>
        <mxCell id="qFgyLphtajTgJsgPCKxl-277" value="" style="rounded=0;whiteSpace=wrap;html=1;fillColor=none;opacity=20;" vertex="1" parent="1">
          <mxGeometry x="420" y="340" width="20" height="20" as="geometry" />
        </mxCell>
        <mxCell id="qFgyLphtajTgJsgPCKxl-278" value="" style="rounded=0;whiteSpace=wrap;html=1;fillColor=none;opacity=20;" vertex="1" parent="1">
          <mxGeometry x="440" y="340" width="20" height="20" as="geometry" />
        </mxCell>
        <mxCell id="qFgyLphtajTgJsgPCKxl-279" value="" style="rounded=0;whiteSpace=wrap;html=1;fillColor=none;opacity=20;" vertex="1" parent="1">
          <mxGeometry x="460" y="340" width="20" height="20" as="geometry" />
        </mxCell>
        <mxCell id="qFgyLphtajTgJsgPCKxl-280" value="" style="rounded=0;whiteSpace=wrap;html=1;fillColor=none;opacity=20;" vertex="1" parent="1">
          <mxGeometry x="480" y="340" width="20" height="20" as="geometry" />
        </mxCell>
        <mxCell id="qFgyLphtajTgJsgPCKxl-281" value="" style="rounded=0;whiteSpace=wrap;html=1;fillColor=none;opacity=20;" vertex="1" parent="1">
          <mxGeometry x="300" y="360" width="20" height="20" as="geometry" />
        </mxCell>
        <mxCell id="qFgyLphtajTgJsgPCKxl-282" value="" style="rounded=0;whiteSpace=wrap;html=1;fillColor=none;opacity=20;" vertex="1" parent="1">
          <mxGeometry x="320" y="360" width="20" height="20" as="geometry" />
        </mxCell>
        <mxCell id="qFgyLphtajTgJsgPCKxl-283" value="" style="rounded=0;whiteSpace=wrap;html=1;fillColor=none;opacity=20;" vertex="1" parent="1">
          <mxGeometry x="340" y="360" width="20" height="20" as="geometry" />
        </mxCell>
        <mxCell id="qFgyLphtajTgJsgPCKxl-284" value="" style="rounded=0;whiteSpace=wrap;html=1;fillColor=none;opacity=20;" vertex="1" parent="1">
          <mxGeometry x="360" y="360" width="20" height="20" as="geometry" />
        </mxCell>
        <mxCell id="qFgyLphtajTgJsgPCKxl-285" value="" style="rounded=0;whiteSpace=wrap;html=1;fillColor=none;opacity=20;" vertex="1" parent="1">
          <mxGeometry x="380" y="360" width="20" height="20" as="geometry" />
        </mxCell>
        <mxCell id="qFgyLphtajTgJsgPCKxl-286" value="" style="rounded=0;whiteSpace=wrap;html=1;fillColor=none;opacity=20;" vertex="1" parent="1">
          <mxGeometry x="400" y="360" width="20" height="20" as="geometry" />
        </mxCell>
        <mxCell id="qFgyLphtajTgJsgPCKxl-287" value="" style="rounded=0;whiteSpace=wrap;html=1;fillColor=none;opacity=20;" vertex="1" parent="1">
          <mxGeometry x="420" y="360" width="20" height="20" as="geometry" />
        </mxCell>
        <mxCell id="qFgyLphtajTgJsgPCKxl-288" value="" style="rounded=0;whiteSpace=wrap;html=1;fillColor=none;opacity=20;" vertex="1" parent="1">
          <mxGeometry x="440" y="360" width="20" height="20" as="geometry" />
        </mxCell>
        <mxCell id="qFgyLphtajTgJsgPCKxl-289" value="" style="rounded=0;whiteSpace=wrap;html=1;fillColor=none;opacity=20;" vertex="1" parent="1">
          <mxGeometry x="460" y="360" width="20" height="20" as="geometry" />
        </mxCell>
        <mxCell id="qFgyLphtajTgJsgPCKxl-290" value="" style="rounded=0;whiteSpace=wrap;html=1;fillColor=none;opacity=20;" vertex="1" parent="1">
          <mxGeometry x="480" y="360" width="20" height="20" as="geometry" />
        </mxCell>
        <mxCell id="qFgyLphtajTgJsgPCKxl-292" value="" style="rounded=0;whiteSpace=wrap;html=1;fillColor=none;opacity=20;" vertex="1" parent="1">
          <mxGeometry x="320" y="380" width="20" height="20" as="geometry" />
        </mxCell>
        <mxCell id="qFgyLphtajTgJsgPCKxl-293" value="" style="rounded=0;whiteSpace=wrap;html=1;fillColor=none;opacity=20;" vertex="1" parent="1">
          <mxGeometry x="340" y="380" width="20" height="20" as="geometry" />
        </mxCell>
        <mxCell id="qFgyLphtajTgJsgPCKxl-294" value="" style="rounded=0;whiteSpace=wrap;html=1;fillColor=none;opacity=20;" vertex="1" parent="1">
          <mxGeometry x="360" y="380" width="20" height="20" as="geometry" />
        </mxCell>
        <mxCell id="qFgyLphtajTgJsgPCKxl-295" value="" style="rounded=0;whiteSpace=wrap;html=1;fillColor=none;opacity=20;" vertex="1" parent="1">
          <mxGeometry x="380" y="380" width="20" height="20" as="geometry" />
        </mxCell>
        <mxCell id="qFgyLphtajTgJsgPCKxl-296" value="" style="rounded=0;whiteSpace=wrap;html=1;fillColor=none;opacity=20;" vertex="1" parent="1">
          <mxGeometry x="400" y="380" width="20" height="20" as="geometry" />
        </mxCell>
        <mxCell id="qFgyLphtajTgJsgPCKxl-297" value="" style="rounded=0;whiteSpace=wrap;html=1;fillColor=none;opacity=20;" vertex="1" parent="1">
          <mxGeometry x="420" y="380" width="20" height="20" as="geometry" />
        </mxCell>
        <mxCell id="qFgyLphtajTgJsgPCKxl-298" value="" style="rounded=0;whiteSpace=wrap;html=1;fillColor=none;opacity=20;" vertex="1" parent="1">
          <mxGeometry x="440" y="380" width="20" height="20" as="geometry" />
        </mxCell>
        <mxCell id="qFgyLphtajTgJsgPCKxl-299" value="" style="rounded=0;whiteSpace=wrap;html=1;fillColor=none;opacity=20;" vertex="1" parent="1">
          <mxGeometry x="460" y="380" width="20" height="20" as="geometry" />
        </mxCell>
        <mxCell id="qFgyLphtajTgJsgPCKxl-300" value="" style="rounded=0;whiteSpace=wrap;html=1;fillColor=none;opacity=20;" vertex="1" parent="1">
          <mxGeometry x="480" y="380" width="20" height="20" as="geometry" />
        </mxCell>
        <mxCell id="qFgyLphtajTgJsgPCKxl-301" value="" style="rounded=0;whiteSpace=wrap;html=1;fillColor=none;opacity=20;" vertex="1" parent="1">
          <mxGeometry x="360" y="280" width="20" height="20" as="geometry" />
        </mxCell>
        <mxCell id="qFgyLphtajTgJsgPCKxl-302" value="" style="rounded=0;whiteSpace=wrap;html=1;fillColor=none;opacity=20;" vertex="1" parent="1">
          <mxGeometry x="360" y="320" width="20" height="20" as="geometry" />
        </mxCell>
        <mxCell id="qFgyLphtajTgJsgPCKxl-303" value="" style="whiteSpace=wrap;html=1;aspect=fixed;" vertex="1" parent="1">
          <mxGeometry x="520" y="200" width="200" height="200" as="geometry" />
        </mxCell>
        <mxCell id="qFgyLphtajTgJsgPCKxl-304" value="" style="rounded=0;whiteSpace=wrap;html=1;fillColor=none;opacity=20;" vertex="1" parent="1">
          <mxGeometry x="520" y="200" width="20" height="20" as="geometry" />
        </mxCell>
        <mxCell id="qFgyLphtajTgJsgPCKxl-305" value="" style="rounded=0;whiteSpace=wrap;html=1;fillColor=none;opacity=20;" vertex="1" parent="1">
          <mxGeometry x="540" y="200" width="20" height="20" as="geometry" />
        </mxCell>
        <mxCell id="qFgyLphtajTgJsgPCKxl-306" value="" style="rounded=0;whiteSpace=wrap;html=1;fillColor=none;opacity=20;" vertex="1" parent="1">
          <mxGeometry x="560" y="200" width="20" height="20" as="geometry" />
        </mxCell>
        <mxCell id="qFgyLphtajTgJsgPCKxl-307" value="" style="rounded=0;whiteSpace=wrap;html=1;fillColor=none;opacity=20;" vertex="1" parent="1">
          <mxGeometry x="580" y="200" width="20" height="20" as="geometry" />
        </mxCell>
        <mxCell id="qFgyLphtajTgJsgPCKxl-308" value="" style="rounded=0;whiteSpace=wrap;html=1;fillColor=none;opacity=20;" vertex="1" parent="1">
          <mxGeometry x="600" y="200" width="20" height="20" as="geometry" />
        </mxCell>
        <mxCell id="qFgyLphtajTgJsgPCKxl-309" value="" style="rounded=0;whiteSpace=wrap;html=1;fillColor=none;opacity=20;" vertex="1" parent="1">
          <mxGeometry x="620" y="200" width="20" height="20" as="geometry" />
        </mxCell>
        <mxCell id="qFgyLphtajTgJsgPCKxl-310" value="" style="rounded=0;whiteSpace=wrap;html=1;fillColor=none;opacity=20;" vertex="1" parent="1">
          <mxGeometry x="640" y="200" width="20" height="20" as="geometry" />
        </mxCell>
        <mxCell id="qFgyLphtajTgJsgPCKxl-311" value="" style="rounded=0;whiteSpace=wrap;html=1;fillColor=none;opacity=20;" vertex="1" parent="1">
          <mxGeometry x="660" y="200" width="20" height="20" as="geometry" />
        </mxCell>
        <mxCell id="qFgyLphtajTgJsgPCKxl-312" value="" style="rounded=0;whiteSpace=wrap;html=1;fillColor=none;opacity=20;" vertex="1" parent="1">
          <mxGeometry x="680" y="200" width="20" height="20" as="geometry" />
        </mxCell>
        <mxCell id="qFgyLphtajTgJsgPCKxl-313" value="" style="rounded=0;whiteSpace=wrap;html=1;fillColor=none;opacity=20;" vertex="1" parent="1">
          <mxGeometry x="700" y="200" width="20" height="20" as="geometry" />
        </mxCell>
        <mxCell id="qFgyLphtajTgJsgPCKxl-314" value="" style="rounded=0;whiteSpace=wrap;html=1;fillColor=none;opacity=20;" vertex="1" parent="1">
          <mxGeometry x="520" y="220" width="20" height="20" as="geometry" />
        </mxCell>
        <mxCell id="qFgyLphtajTgJsgPCKxl-315" value="" style="rounded=0;whiteSpace=wrap;html=1;fillColor=none;opacity=20;" vertex="1" parent="1">
          <mxGeometry x="540" y="220" width="20" height="20" as="geometry" />
        </mxCell>
        <mxCell id="qFgyLphtajTgJsgPCKxl-316" value="" style="rounded=0;whiteSpace=wrap;html=1;fillColor=none;opacity=20;" vertex="1" parent="1">
          <mxGeometry x="560" y="220" width="20" height="20" as="geometry" />
        </mxCell>
        <mxCell id="qFgyLphtajTgJsgPCKxl-317" value="" style="rounded=0;whiteSpace=wrap;html=1;fillColor=none;opacity=20;" vertex="1" parent="1">
          <mxGeometry x="580" y="220" width="20" height="20" as="geometry" />
        </mxCell>
        <mxCell id="qFgyLphtajTgJsgPCKxl-318" value="" style="rounded=0;whiteSpace=wrap;html=1;fillColor=none;opacity=20;" vertex="1" parent="1">
          <mxGeometry x="600" y="220" width="20" height="20" as="geometry" />
        </mxCell>
        <mxCell id="qFgyLphtajTgJsgPCKxl-319" value="" style="rounded=0;whiteSpace=wrap;html=1;fillColor=none;opacity=20;" vertex="1" parent="1">
          <mxGeometry x="620" y="220" width="20" height="20" as="geometry" />
        </mxCell>
        <mxCell id="qFgyLphtajTgJsgPCKxl-320" value="" style="rounded=0;whiteSpace=wrap;html=1;fillColor=none;opacity=20;" vertex="1" parent="1">
          <mxGeometry x="640" y="220" width="20" height="20" as="geometry" />
        </mxCell>
        <mxCell id="qFgyLphtajTgJsgPCKxl-321" value="" style="rounded=0;whiteSpace=wrap;html=1;fillColor=none;opacity=20;" vertex="1" parent="1">
          <mxGeometry x="660" y="220" width="20" height="20" as="geometry" />
        </mxCell>
        <mxCell id="qFgyLphtajTgJsgPCKxl-322" value="" style="rounded=0;whiteSpace=wrap;html=1;fillColor=none;opacity=20;" vertex="1" parent="1">
          <mxGeometry x="680" y="220" width="20" height="20" as="geometry" />
        </mxCell>
        <mxCell id="qFgyLphtajTgJsgPCKxl-323" value="" style="rounded=0;whiteSpace=wrap;html=1;fillColor=none;opacity=20;" vertex="1" parent="1">
          <mxGeometry x="700" y="220" width="20" height="20" as="geometry" />
        </mxCell>
        <mxCell id="qFgyLphtajTgJsgPCKxl-324" value="" style="rounded=0;whiteSpace=wrap;html=1;fillColor=none;opacity=20;" vertex="1" parent="1">
          <mxGeometry x="520" y="240" width="20" height="20" as="geometry" />
        </mxCell>
        <mxCell id="qFgyLphtajTgJsgPCKxl-325" value="" style="rounded=0;whiteSpace=wrap;html=1;fillColor=none;opacity=20;" vertex="1" parent="1">
          <mxGeometry x="540" y="240" width="20" height="20" as="geometry" />
        </mxCell>
        <mxCell id="qFgyLphtajTgJsgPCKxl-326" value="" style="rounded=0;whiteSpace=wrap;html=1;fillColor=none;opacity=20;" vertex="1" parent="1">
          <mxGeometry x="560" y="240" width="20" height="20" as="geometry" />
        </mxCell>
        <mxCell id="qFgyLphtajTgJsgPCKxl-327" value="" style="rounded=0;whiteSpace=wrap;html=1;fillColor=none;opacity=20;" vertex="1" parent="1">
          <mxGeometry x="580" y="240" width="20" height="20" as="geometry" />
        </mxCell>
        <mxCell id="qFgyLphtajTgJsgPCKxl-328" value="" style="rounded=0;whiteSpace=wrap;html=1;fillColor=none;opacity=20;" vertex="1" parent="1">
          <mxGeometry x="600" y="240" width="20" height="20" as="geometry" />
        </mxCell>
        <mxCell id="qFgyLphtajTgJsgPCKxl-329" value="" style="rounded=0;whiteSpace=wrap;html=1;fillColor=none;opacity=20;" vertex="1" parent="1">
          <mxGeometry x="620" y="240" width="20" height="20" as="geometry" />
        </mxCell>
        <mxCell id="qFgyLphtajTgJsgPCKxl-330" value="" style="rounded=0;whiteSpace=wrap;html=1;fillColor=none;opacity=20;" vertex="1" parent="1">
          <mxGeometry x="640" y="240" width="20" height="20" as="geometry" />
        </mxCell>
        <mxCell id="qFgyLphtajTgJsgPCKxl-331" value="" style="rounded=0;whiteSpace=wrap;html=1;fillColor=none;opacity=20;" vertex="1" parent="1">
          <mxGeometry x="660" y="240" width="20" height="20" as="geometry" />
        </mxCell>
        <mxCell id="qFgyLphtajTgJsgPCKxl-332" value="" style="rounded=0;whiteSpace=wrap;html=1;fillColor=none;opacity=20;" vertex="1" parent="1">
          <mxGeometry x="680" y="240" width="20" height="20" as="geometry" />
        </mxCell>
        <mxCell id="qFgyLphtajTgJsgPCKxl-333" value="" style="rounded=0;whiteSpace=wrap;html=1;fillColor=none;opacity=20;" vertex="1" parent="1">
          <mxGeometry x="700" y="240" width="20" height="20" as="geometry" />
        </mxCell>
        <mxCell id="qFgyLphtajTgJsgPCKxl-334" value="" style="rounded=0;whiteSpace=wrap;html=1;fillColor=none;opacity=20;" vertex="1" parent="1">
          <mxGeometry x="520" y="260" width="20" height="20" as="geometry" />
        </mxCell>
        <mxCell id="qFgyLphtajTgJsgPCKxl-335" value="" style="rounded=0;whiteSpace=wrap;html=1;fillColor=none;opacity=20;" vertex="1" parent="1">
          <mxGeometry x="540" y="260" width="20" height="20" as="geometry" />
        </mxCell>
        <mxCell id="qFgyLphtajTgJsgPCKxl-336" value="" style="rounded=0;whiteSpace=wrap;html=1;fillColor=none;opacity=20;" vertex="1" parent="1">
          <mxGeometry x="560" y="260" width="20" height="20" as="geometry" />
        </mxCell>
        <mxCell id="qFgyLphtajTgJsgPCKxl-337" value="" style="rounded=0;whiteSpace=wrap;html=1;fillColor=none;opacity=20;" vertex="1" parent="1">
          <mxGeometry x="580" y="260" width="20" height="20" as="geometry" />
        </mxCell>
        <mxCell id="qFgyLphtajTgJsgPCKxl-338" value="" style="rounded=0;whiteSpace=wrap;html=1;fillColor=none;opacity=20;" vertex="1" parent="1">
          <mxGeometry x="600" y="260" width="20" height="20" as="geometry" />
        </mxCell>
        <mxCell id="qFgyLphtajTgJsgPCKxl-339" value="" style="rounded=0;whiteSpace=wrap;html=1;fillColor=none;opacity=20;" vertex="1" parent="1">
          <mxGeometry x="620" y="260" width="20" height="20" as="geometry" />
        </mxCell>
        <mxCell id="qFgyLphtajTgJsgPCKxl-340" value="" style="rounded=0;whiteSpace=wrap;html=1;fillColor=none;opacity=20;" vertex="1" parent="1">
          <mxGeometry x="640" y="260" width="20" height="20" as="geometry" />
        </mxCell>
        <mxCell id="qFgyLphtajTgJsgPCKxl-341" value="" style="rounded=0;whiteSpace=wrap;html=1;fillColor=none;opacity=20;" vertex="1" parent="1">
          <mxGeometry x="660" y="260" width="20" height="20" as="geometry" />
        </mxCell>
        <mxCell id="qFgyLphtajTgJsgPCKxl-342" value="" style="rounded=0;whiteSpace=wrap;html=1;fillColor=none;opacity=20;" vertex="1" parent="1">
          <mxGeometry x="680" y="260" width="20" height="20" as="geometry" />
        </mxCell>
        <mxCell id="qFgyLphtajTgJsgPCKxl-343" value="" style="rounded=0;whiteSpace=wrap;html=1;fillColor=none;opacity=20;" vertex="1" parent="1">
          <mxGeometry x="700" y="260" width="20" height="20" as="geometry" />
        </mxCell>
        <mxCell id="qFgyLphtajTgJsgPCKxl-344" value="" style="rounded=0;whiteSpace=wrap;html=1;fillColor=none;opacity=20;" vertex="1" parent="1">
          <mxGeometry x="520" y="280" width="20" height="20" as="geometry" />
        </mxCell>
        <mxCell id="qFgyLphtajTgJsgPCKxl-345" value="" style="rounded=0;whiteSpace=wrap;html=1;fillColor=none;opacity=20;" vertex="1" parent="1">
          <mxGeometry x="540" y="280" width="20" height="20" as="geometry" />
        </mxCell>
        <mxCell id="qFgyLphtajTgJsgPCKxl-346" value="" style="rounded=0;whiteSpace=wrap;html=1;fillColor=none;opacity=20;" vertex="1" parent="1">
          <mxGeometry x="560" y="280" width="20" height="20" as="geometry" />
        </mxCell>
        <mxCell id="qFgyLphtajTgJsgPCKxl-347" value="" style="rounded=0;whiteSpace=wrap;html=1;fillColor=none;opacity=20;" vertex="1" parent="1">
          <mxGeometry x="600" y="280" width="20" height="20" as="geometry" />
        </mxCell>
        <mxCell id="qFgyLphtajTgJsgPCKxl-348" value="" style="rounded=0;whiteSpace=wrap;html=1;fillColor=none;opacity=20;" vertex="1" parent="1">
          <mxGeometry x="620" y="280" width="20" height="20" as="geometry" />
        </mxCell>
        <mxCell id="qFgyLphtajTgJsgPCKxl-349" value="" style="rounded=0;whiteSpace=wrap;html=1;fillColor=none;opacity=20;" vertex="1" parent="1">
          <mxGeometry x="640" y="280" width="20" height="20" as="geometry" />
        </mxCell>
        <mxCell id="qFgyLphtajTgJsgPCKxl-350" value="" style="rounded=0;whiteSpace=wrap;html=1;fillColor=none;opacity=20;" vertex="1" parent="1">
          <mxGeometry x="660" y="280" width="20" height="20" as="geometry" />
        </mxCell>
        <mxCell id="qFgyLphtajTgJsgPCKxl-351" value="" style="rounded=0;whiteSpace=wrap;html=1;fillColor=none;opacity=20;" vertex="1" parent="1">
          <mxGeometry x="680" y="280" width="20" height="20" as="geometry" />
        </mxCell>
        <mxCell id="qFgyLphtajTgJsgPCKxl-352" value="" style="rounded=0;whiteSpace=wrap;html=1;fillColor=none;opacity=20;" vertex="1" parent="1">
          <mxGeometry x="700" y="280" width="20" height="20" as="geometry" />
        </mxCell>
        <mxCell id="qFgyLphtajTgJsgPCKxl-353" value="" style="rounded=0;whiteSpace=wrap;html=1;fillColor=none;opacity=20;" vertex="1" parent="1">
          <mxGeometry x="520" y="300" width="20" height="20" as="geometry" />
        </mxCell>
        <mxCell id="qFgyLphtajTgJsgPCKxl-354" value="" style="rounded=0;whiteSpace=wrap;html=1;fillColor=none;opacity=20;" vertex="1" parent="1">
          <mxGeometry x="540" y="300" width="20" height="20" as="geometry" />
        </mxCell>
        <mxCell id="qFgyLphtajTgJsgPCKxl-355" value="" style="rounded=0;whiteSpace=wrap;html=1;fillColor=none;opacity=20;" vertex="1" parent="1">
          <mxGeometry x="560" y="300" width="20" height="20" as="geometry" />
        </mxCell>
        <mxCell id="qFgyLphtajTgJsgPCKxl-356" value="" style="rounded=0;whiteSpace=wrap;html=1;fillColor=none;opacity=20;" vertex="1" parent="1">
          <mxGeometry x="580" y="300" width="20" height="20" as="geometry" />
        </mxCell>
        <mxCell id="qFgyLphtajTgJsgPCKxl-357" value="" style="rounded=0;whiteSpace=wrap;html=1;fillColor=none;opacity=20;" vertex="1" parent="1">
          <mxGeometry x="600" y="300" width="20" height="20" as="geometry" />
        </mxCell>
        <mxCell id="qFgyLphtajTgJsgPCKxl-358" value="" style="rounded=0;whiteSpace=wrap;html=1;fillColor=none;opacity=20;" vertex="1" parent="1">
          <mxGeometry x="620" y="300" width="20" height="20" as="geometry" />
        </mxCell>
        <mxCell id="qFgyLphtajTgJsgPCKxl-359" value="" style="rounded=0;whiteSpace=wrap;html=1;fillColor=none;opacity=20;" vertex="1" parent="1">
          <mxGeometry x="640" y="300" width="20" height="20" as="geometry" />
        </mxCell>
        <mxCell id="qFgyLphtajTgJsgPCKxl-360" value="" style="rounded=0;whiteSpace=wrap;html=1;fillColor=none;opacity=20;" vertex="1" parent="1">
          <mxGeometry x="660" y="300" width="20" height="20" as="geometry" />
        </mxCell>
        <mxCell id="qFgyLphtajTgJsgPCKxl-361" value="" style="rounded=0;whiteSpace=wrap;html=1;fillColor=none;opacity=20;" vertex="1" parent="1">
          <mxGeometry x="680" y="300" width="20" height="20" as="geometry" />
        </mxCell>
        <mxCell id="qFgyLphtajTgJsgPCKxl-362" value="" style="rounded=0;whiteSpace=wrap;html=1;fillColor=none;opacity=20;" vertex="1" parent="1">
          <mxGeometry x="700" y="300" width="20" height="20" as="geometry" />
        </mxCell>
        <mxCell id="qFgyLphtajTgJsgPCKxl-363" value="" style="rounded=0;whiteSpace=wrap;html=1;fillColor=none;opacity=20;" vertex="1" parent="1">
          <mxGeometry x="520" y="320" width="20" height="20" as="geometry" />
        </mxCell>
        <mxCell id="qFgyLphtajTgJsgPCKxl-364" value="" style="rounded=0;whiteSpace=wrap;html=1;fillColor=none;opacity=20;" vertex="1" parent="1">
          <mxGeometry x="540" y="320" width="20" height="20" as="geometry" />
        </mxCell>
        <mxCell id="qFgyLphtajTgJsgPCKxl-365" value="" style="rounded=0;whiteSpace=wrap;html=1;fillColor=none;opacity=20;" vertex="1" parent="1">
          <mxGeometry x="560" y="320" width="20" height="20" as="geometry" />
        </mxCell>
        <mxCell id="qFgyLphtajTgJsgPCKxl-366" value="" style="rounded=0;whiteSpace=wrap;html=1;fillColor=none;opacity=20;" vertex="1" parent="1">
          <mxGeometry x="600" y="320" width="20" height="20" as="geometry" />
        </mxCell>
        <mxCell id="qFgyLphtajTgJsgPCKxl-367" value="" style="rounded=0;whiteSpace=wrap;html=1;fillColor=none;opacity=20;" vertex="1" parent="1">
          <mxGeometry x="620" y="320" width="20" height="20" as="geometry" />
        </mxCell>
        <mxCell id="qFgyLphtajTgJsgPCKxl-368" value="" style="rounded=0;whiteSpace=wrap;html=1;fillColor=none;opacity=20;" vertex="1" parent="1">
          <mxGeometry x="640" y="320" width="20" height="20" as="geometry" />
        </mxCell>
        <mxCell id="qFgyLphtajTgJsgPCKxl-369" value="" style="rounded=0;whiteSpace=wrap;html=1;fillColor=none;opacity=20;" vertex="1" parent="1">
          <mxGeometry x="660" y="320" width="20" height="20" as="geometry" />
        </mxCell>
        <mxCell id="qFgyLphtajTgJsgPCKxl-370" value="" style="rounded=0;whiteSpace=wrap;html=1;fillColor=none;opacity=20;" vertex="1" parent="1">
          <mxGeometry x="680" y="320" width="20" height="20" as="geometry" />
        </mxCell>
        <mxCell id="qFgyLphtajTgJsgPCKxl-371" value="" style="rounded=0;whiteSpace=wrap;html=1;fillColor=none;opacity=20;" vertex="1" parent="1">
          <mxGeometry x="700" y="320" width="20" height="20" as="geometry" />
        </mxCell>
        <mxCell id="qFgyLphtajTgJsgPCKxl-372" value="" style="rounded=0;whiteSpace=wrap;html=1;fillColor=none;opacity=20;" vertex="1" parent="1">
          <mxGeometry x="520" y="340" width="20" height="20" as="geometry" />
        </mxCell>
        <mxCell id="qFgyLphtajTgJsgPCKxl-373" value="" style="rounded=0;whiteSpace=wrap;html=1;fillColor=none;opacity=20;" vertex="1" parent="1">
          <mxGeometry x="540" y="340" width="20" height="20" as="geometry" />
        </mxCell>
        <mxCell id="qFgyLphtajTgJsgPCKxl-374" value="" style="rounded=0;whiteSpace=wrap;html=1;fillColor=none;opacity=20;" vertex="1" parent="1">
          <mxGeometry x="560" y="340" width="20" height="20" as="geometry" />
        </mxCell>
        <mxCell id="qFgyLphtajTgJsgPCKxl-375" value="" style="rounded=0;whiteSpace=wrap;html=1;fillColor=none;opacity=20;" vertex="1" parent="1">
          <mxGeometry x="580" y="340" width="20" height="20" as="geometry" />
        </mxCell>
        <mxCell id="qFgyLphtajTgJsgPCKxl-376" value="" style="rounded=0;whiteSpace=wrap;html=1;fillColor=none;opacity=20;" vertex="1" parent="1">
          <mxGeometry x="600" y="340" width="20" height="20" as="geometry" />
        </mxCell>
        <mxCell id="qFgyLphtajTgJsgPCKxl-377" value="" style="rounded=0;whiteSpace=wrap;html=1;fillColor=none;opacity=20;" vertex="1" parent="1">
          <mxGeometry x="620" y="340" width="20" height="20" as="geometry" />
        </mxCell>
        <mxCell id="qFgyLphtajTgJsgPCKxl-378" value="" style="rounded=0;whiteSpace=wrap;html=1;fillColor=none;opacity=20;" vertex="1" parent="1">
          <mxGeometry x="640" y="340" width="20" height="20" as="geometry" />
        </mxCell>
        <mxCell id="qFgyLphtajTgJsgPCKxl-379" value="" style="rounded=0;whiteSpace=wrap;html=1;fillColor=none;opacity=20;" vertex="1" parent="1">
          <mxGeometry x="660" y="340" width="20" height="20" as="geometry" />
        </mxCell>
        <mxCell id="qFgyLphtajTgJsgPCKxl-380" value="" style="rounded=0;whiteSpace=wrap;html=1;fillColor=none;opacity=20;" vertex="1" parent="1">
          <mxGeometry x="680" y="340" width="20" height="20" as="geometry" />
        </mxCell>
        <mxCell id="qFgyLphtajTgJsgPCKxl-381" value="" style="rounded=0;whiteSpace=wrap;html=1;fillColor=none;opacity=20;" vertex="1" parent="1">
          <mxGeometry x="700" y="340" width="20" height="20" as="geometry" />
        </mxCell>
        <mxCell id="qFgyLphtajTgJsgPCKxl-382" value="" style="rounded=0;whiteSpace=wrap;html=1;fillColor=none;opacity=20;" vertex="1" parent="1">
          <mxGeometry x="520" y="360" width="20" height="20" as="geometry" />
        </mxCell>
        <mxCell id="qFgyLphtajTgJsgPCKxl-383" value="" style="rounded=0;whiteSpace=wrap;html=1;fillColor=none;opacity=20;" vertex="1" parent="1">
          <mxGeometry x="540" y="360" width="20" height="20" as="geometry" />
        </mxCell>
        <mxCell id="qFgyLphtajTgJsgPCKxl-384" value="" style="rounded=0;whiteSpace=wrap;html=1;fillColor=none;opacity=20;" vertex="1" parent="1">
          <mxGeometry x="560" y="360" width="20" height="20" as="geometry" />
        </mxCell>
        <mxCell id="qFgyLphtajTgJsgPCKxl-385" value="" style="rounded=0;whiteSpace=wrap;html=1;fillColor=none;opacity=20;" vertex="1" parent="1">
          <mxGeometry x="580" y="360" width="20" height="20" as="geometry" />
        </mxCell>
        <mxCell id="qFgyLphtajTgJsgPCKxl-386" value="" style="rounded=0;whiteSpace=wrap;html=1;fillColor=none;opacity=20;" vertex="1" parent="1">
          <mxGeometry x="600" y="360" width="20" height="20" as="geometry" />
        </mxCell>
        <mxCell id="qFgyLphtajTgJsgPCKxl-387" value="" style="rounded=0;whiteSpace=wrap;html=1;fillColor=none;opacity=20;" vertex="1" parent="1">
          <mxGeometry x="620" y="360" width="20" height="20" as="geometry" />
        </mxCell>
        <mxCell id="qFgyLphtajTgJsgPCKxl-388" value="" style="rounded=0;whiteSpace=wrap;html=1;fillColor=none;opacity=20;" vertex="1" parent="1">
          <mxGeometry x="640" y="360" width="20" height="20" as="geometry" />
        </mxCell>
        <mxCell id="qFgyLphtajTgJsgPCKxl-389" value="" style="rounded=0;whiteSpace=wrap;html=1;fillColor=none;opacity=20;" vertex="1" parent="1">
          <mxGeometry x="660" y="360" width="20" height="20" as="geometry" />
        </mxCell>
        <mxCell id="qFgyLphtajTgJsgPCKxl-390" value="" style="rounded=0;whiteSpace=wrap;html=1;fillColor=none;opacity=20;" vertex="1" parent="1">
          <mxGeometry x="680" y="360" width="20" height="20" as="geometry" />
        </mxCell>
        <mxCell id="qFgyLphtajTgJsgPCKxl-391" value="" style="rounded=0;whiteSpace=wrap;html=1;fillColor=none;opacity=20;" vertex="1" parent="1">
          <mxGeometry x="700" y="360" width="20" height="20" as="geometry" />
        </mxCell>
        <mxCell id="qFgyLphtajTgJsgPCKxl-392" value="" style="rounded=0;whiteSpace=wrap;html=1;fillColor=none;opacity=20;" vertex="1" parent="1">
          <mxGeometry x="520" y="380" width="20" height="20" as="geometry" />
        </mxCell>
        <mxCell id="qFgyLphtajTgJsgPCKxl-393" value="" style="rounded=0;whiteSpace=wrap;html=1;fillColor=none;opacity=20;" vertex="1" parent="1">
          <mxGeometry x="540" y="380" width="20" height="20" as="geometry" />
        </mxCell>
        <mxCell id="qFgyLphtajTgJsgPCKxl-394" value="" style="rounded=0;whiteSpace=wrap;html=1;fillColor=none;opacity=20;" vertex="1" parent="1">
          <mxGeometry x="560" y="380" width="20" height="20" as="geometry" />
        </mxCell>
        <mxCell id="qFgyLphtajTgJsgPCKxl-395" value="" style="rounded=0;whiteSpace=wrap;html=1;fillColor=none;opacity=20;" vertex="1" parent="1">
          <mxGeometry x="580" y="380" width="20" height="20" as="geometry" />
        </mxCell>
        <mxCell id="qFgyLphtajTgJsgPCKxl-396" value="" style="rounded=0;whiteSpace=wrap;html=1;fillColor=none;opacity=20;" vertex="1" parent="1">
          <mxGeometry x="600" y="380" width="20" height="20" as="geometry" />
        </mxCell>
        <mxCell id="qFgyLphtajTgJsgPCKxl-397" value="" style="rounded=0;whiteSpace=wrap;html=1;fillColor=none;opacity=20;" vertex="1" parent="1">
          <mxGeometry x="620" y="380" width="20" height="20" as="geometry" />
        </mxCell>
        <mxCell id="qFgyLphtajTgJsgPCKxl-398" value="" style="rounded=0;whiteSpace=wrap;html=1;fillColor=none;opacity=20;" vertex="1" parent="1">
          <mxGeometry x="640" y="380" width="20" height="20" as="geometry" />
        </mxCell>
        <mxCell id="qFgyLphtajTgJsgPCKxl-399" value="" style="rounded=0;whiteSpace=wrap;html=1;fillColor=none;opacity=20;" vertex="1" parent="1">
          <mxGeometry x="660" y="380" width="20" height="20" as="geometry" />
        </mxCell>
        <mxCell id="qFgyLphtajTgJsgPCKxl-400" value="" style="rounded=0;whiteSpace=wrap;html=1;fillColor=none;opacity=20;" vertex="1" parent="1">
          <mxGeometry x="680" y="380" width="20" height="20" as="geometry" />
        </mxCell>
        <mxCell id="qFgyLphtajTgJsgPCKxl-401" value="" style="rounded=0;whiteSpace=wrap;html=1;fillColor=none;opacity=20;" vertex="1" parent="1">
          <mxGeometry x="700" y="380" width="20" height="20" as="geometry" />
        </mxCell>
        <mxCell id="qFgyLphtajTgJsgPCKxl-402" value="" style="rounded=0;whiteSpace=wrap;html=1;fillColor=none;opacity=20;" vertex="1" parent="1">
          <mxGeometry x="580" y="280" width="20" height="20" as="geometry" />
        </mxCell>
        <mxCell id="qFgyLphtajTgJsgPCKxl-403" value="" style="rounded=0;whiteSpace=wrap;html=1;fillColor=none;opacity=20;" vertex="1" parent="1">
          <mxGeometry x="580" y="320" width="20" height="20" as="geometry" />
        </mxCell>
        <mxCell id="qFgyLphtajTgJsgPCKxl-20" value="" style="endArrow=classic;html=1;rounded=0;" edge="1" parent="1">
          <mxGeometry width="50" height="50" relative="1" as="geometry">
            <mxPoint x="320" y="259.88" as="sourcePoint" />
            <mxPoint x="340" y="259.88" as="targetPoint" />
          </mxGeometry>
        </mxCell>
        <mxCell id="qFgyLphtajTgJsgPCKxl-405" value="" style="endArrow=classic;html=1;rounded=0;" edge="1" parent="1">
          <mxGeometry width="50" height="50" relative="1" as="geometry">
            <mxPoint x="360" y="320" as="sourcePoint" />
            <mxPoint x="380" y="320" as="targetPoint" />
          </mxGeometry>
        </mxCell>
        <mxCell id="qFgyLphtajTgJsgPCKxl-407" value="" style="rounded=0;whiteSpace=wrap;html=1;fillColor=none;opacity=20;" vertex="1" parent="1">
          <mxGeometry x="300" y="380" width="20" height="20" as="geometry" />
        </mxCell>
        <mxCell id="qFgyLphtajTgJsgPCKxl-408" value="&lt;b&gt;FB[0]&lt;/b&gt;" style="text;html=1;align=center;verticalAlign=middle;resizable=0;points=[];autosize=1;strokeColor=none;fillColor=none;fontSize=15;" vertex="1" parent="1">
          <mxGeometry x="590" y="170" width="60" height="30" as="geometry" />
        </mxCell>
        <mxCell id="qFgyLphtajTgJsgPCKxl-410" value="" style="whiteSpace=wrap;html=1;aspect=fixed;strokeColor=#FF0000;fillColor=#FF0000;" vertex="1" parent="1">
          <mxGeometry x="580" y="220" width="80" height="80" as="geometry" />
        </mxCell>
        <mxCell id="qFgyLphtajTgJsgPCKxl-411" value="" style="whiteSpace=wrap;html=1;aspect=fixed;strokeColor=none;fillColor=#FF0000;dashed=1;strokeWidth=2;spacing=2;spacingTop=-14;opacity=20;" vertex="1" parent="1">
          <mxGeometry x="540" y="220" width="80" height="80" as="geometry" />
        </mxCell>
        <mxCell id="qFgyLphtajTgJsgPCKxl-412" value="" style="whiteSpace=wrap;html=1;aspect=fixed;strokeColor=#0000FF;fillColor=#0000FF;opacity=70;" vertex="1" parent="1">
          <mxGeometry x="620" y="260" width="80" height="80" as="geometry" />
        </mxCell>
        <mxCell id="qFgyLphtajTgJsgPCKxl-413" value="" style="whiteSpace=wrap;html=1;aspect=fixed;strokeColor=none;fillColor=#0000FF;strokeWidth=2;dashed=1;opacity=20;" vertex="1" parent="1">
          <mxGeometry x="580" y="260" width="80" height="80" as="geometry" />
        </mxCell>
        <mxCell id="qFgyLphtajTgJsgPCKxl-414" value="Previosly drawn rectangles" style="rounded=1;whiteSpace=wrap;html=1;" vertex="1" parent="1">
          <mxGeometry x="529" y="350" width="91" height="40" as="geometry" />
        </mxCell>
        <mxCell id="qFgyLphtajTgJsgPCKxl-415" value="" style="endArrow=classic;html=1;rounded=0;entryX=0.25;entryY=1;entryDx=0;entryDy=0;exitX=0.25;exitY=0;exitDx=0;exitDy=0;" edge="1" parent="1" source="qFgyLphtajTgJsgPCKxl-414" target="qFgyLphtajTgJsgPCKxl-411">
          <mxGeometry width="50" height="50" relative="1" as="geometry">
            <mxPoint x="556" y="340" as="sourcePoint" />
            <mxPoint x="606" y="290" as="targetPoint" />
          </mxGeometry>
        </mxCell>
        <mxCell id="qFgyLphtajTgJsgPCKxl-416" value="" style="endArrow=classic;html=1;rounded=0;entryX=0;entryY=0.75;entryDx=0;entryDy=0;exitX=0.25;exitY=0;exitDx=0;exitDy=0;" edge="1" parent="1" source="qFgyLphtajTgJsgPCKxl-414" target="qFgyLphtajTgJsgPCKxl-413">
          <mxGeometry width="50" height="50" relative="1" as="geometry">
            <mxPoint x="545" y="370" as="sourcePoint" />
            <mxPoint x="570" y="310" as="targetPoint" />
          </mxGeometry>
        </mxCell>
        <mxCell id="qFgyLphtajTgJsgPCKxl-417" value="" style="whiteSpace=wrap;html=1;aspect=fixed;strokeColor=default;fillColor=none;dashed=1;strokeWidth=2;spacing=2;spacingTop=-14;" vertex="1" parent="1">
          <mxGeometry x="540" y="220" width="80" height="80" as="geometry" />
        </mxCell>
        <mxCell id="qFgyLphtajTgJsgPCKxl-418" value="" style="whiteSpace=wrap;html=1;aspect=fixed;strokeColor=default;fillColor=none;dashed=1;strokeWidth=2;spacing=2;spacingTop=-14;" vertex="1" parent="1">
          <mxGeometry x="580" y="260" width="80" height="80" as="geometry" />
        </mxCell>
        <mxCell id="qFgyLphtajTgJsgPCKxl-420" value="&lt;b&gt;(a)&lt;/b&gt;" style="text;html=1;align=center;verticalAlign=middle;resizable=0;points=[];autosize=1;strokeColor=none;fillColor=none;" vertex="1" parent="1">
          <mxGeometry x="70" y="170" width="40" height="30" as="geometry" />
        </mxCell>
        <mxCell id="qFgyLphtajTgJsgPCKxl-421" value="&lt;b&gt;(b)&lt;/b&gt;" style="text;html=1;align=center;verticalAlign=middle;resizable=0;points=[];autosize=1;strokeColor=none;fillColor=none;" vertex="1" parent="1">
          <mxGeometry x="290" y="170" width="40" height="30" as="geometry" />
        </mxCell>
        <mxCell id="qFgyLphtajTgJsgPCKxl-422" value="&lt;b&gt;(c)&lt;/b&gt;" style="text;html=1;align=center;verticalAlign=middle;resizable=0;points=[];autosize=1;strokeColor=none;fillColor=none;" vertex="1" parent="1">
          <mxGeometry x="510" y="170" width="40" height="30" as="geometry" />
        </mxCell>
        <mxCell id="qFgyLphtajTgJsgPCKxl-423" value="" style="rounded=0;whiteSpace=wrap;html=1;fillColor=none;opacity=20;" vertex="1" parent="1">
          <mxGeometry x="440" y="320" width="20" height="20" as="geometry" />
        </mxCell>
      </root>
    </mxGraphModel>
  </diagram>
</mxfile>
